<svg width="205" height="38" viewBox="0 0 205 38" fill="none" xmlns="http://www.w3.org/2000/svg">
<path d="M111.459 2.40342C111.355 5.52137 112.552 7.60928 115.133 8.89915C115.303 8.98266 115.444 9.31673 115.444 9.53016C115.501 13.3441 117.592 15.8125 121.361 16.5084C121.587 16.5548 121.879 16.7961 121.954 17.0095C122.604 18.8562 123.819 20.146 125.685 20.8049C126.212 20.9905 126.137 21.306 126.099 21.6864C125.412 28.5255 120.484 34.8542 113.202 36.7472C106.278 38.5475 100.145 36.9236 95.3021 31.727C90.4127 26.484 89.1879 20.2481 91.7693 13.6039C94.3412 6.99683 99.4474 3.26643 106.598 2.42198C108.181 2.24567 109.792 2.40342 111.459 2.40342ZM104.977 30.9661C106.155 30.9753 107.107 30.0474 107.097 28.8781C107.088 27.7089 106.117 26.7717 104.883 26.7624C103.894 26.7531 102.905 27.7739 102.886 28.841C102.858 29.9917 103.809 30.9475 104.977 30.9661ZM104.977 12.5739C104.977 11.4139 104.035 10.486 102.858 10.486C101.69 10.4952 100.729 11.451 100.757 12.5924C100.776 13.6967 101.727 14.6339 102.848 14.6432C104.017 14.6618 104.977 13.7245 104.977 12.5739ZM113.551 17.0281C113.569 15.8774 112.608 14.9031 111.44 14.9031C110.3 14.9031 109.358 15.8217 109.339 16.9446C109.321 18.0952 110.206 19.0232 111.355 19.0603C112.542 19.0974 113.522 18.188 113.551 17.0281ZM119.863 26.1592C119.881 25.0735 118.92 24.1455 117.79 24.127C116.622 24.1084 115.633 25.0642 115.642 26.2056C115.651 27.3377 116.565 28.2471 117.705 28.275C118.949 28.2935 119.844 27.4212 119.863 26.1592ZM100.747 22.5587C100.757 21.4173 99.8619 20.4987 98.7031 20.4708C97.5161 20.443 96.5457 21.3617 96.5457 22.5309C96.5363 23.7001 97.5066 24.6466 98.6748 24.6281C99.8148 24.6095 100.738 23.6908 100.747 22.5587Z" fill="#C7B299"/>
<path d="M118.694 2.8117C118.685 3.94381 117.762 4.85321 116.612 4.86249C115.435 4.87177 114.464 3.90669 114.502 2.75602C114.53 1.63319 115.491 0.723785 116.631 0.742345C117.771 0.760904 118.694 1.68886 118.694 2.8117Z" fill="#C7B299"/>
<path d="M118.176 11.8964C118.167 10.9499 118.911 10.1982 119.863 10.1797C120.805 10.1704 121.596 10.922 121.606 11.85C121.624 12.7594 120.842 13.5482 119.9 13.5574C118.949 13.576 118.186 12.8429 118.176 11.8964Z" fill="#C7B299"/>
<path d="M125.101 16.5641C125.251 15.9795 125.6 15.6176 126.25 15.6547C126.853 15.6918 127.315 16.2486 127.201 16.8332C127.079 17.4457 126.664 17.789 126.033 17.7055C125.411 17.6313 125.11 17.2044 125.101 16.5641Z" fill="#C7B299"/>
<path d="M125.609 8.20313C125.572 8.82486 125.251 9.20532 124.611 9.25172C123.998 9.29812 123.461 8.81558 123.499 8.22168C123.537 7.59995 123.904 7.21021 124.535 7.20093C125.176 7.20093 125.543 7.56283 125.609 8.20313Z" fill="#C7B299"/>
<path d="M104.977 30.9661C103.809 30.9568 102.858 29.9917 102.886 28.841C102.905 27.7739 103.894 26.7531 104.883 26.7624C106.117 26.7717 107.097 27.7089 107.097 28.8781C107.106 30.0381 106.155 30.9753 104.977 30.9661Z" fill="white"/>
<path d="M104.977 12.5739C104.977 13.7246 104.007 14.6711 102.848 14.6525C101.727 14.634 100.775 13.706 100.757 12.6017C100.738 11.4603 101.689 10.4953 102.857 10.4953C104.045 10.4767 104.987 11.4047 104.977 12.5739Z" fill="white"/>
<path d="M113.55 17.0281C113.531 18.1881 112.542 19.0975 111.355 19.0603C110.206 19.0232 109.32 18.0953 109.339 16.9446C109.358 15.8125 110.3 14.9031 111.44 14.9031C112.608 14.9031 113.569 15.8774 113.55 17.0281Z" fill="white"/>
<path d="M119.863 26.1591C119.844 27.4212 118.949 28.2934 117.705 28.2656C116.565 28.247 115.652 27.3284 115.642 26.1963C115.633 25.0641 116.622 24.1083 117.79 24.1176C118.93 24.1455 119.882 25.0734 119.863 26.1591Z" fill="white"/>
<path d="M100.748 22.5586C100.738 23.6908 99.8244 24.6094 98.6751 24.628C97.5069 24.6466 96.5365 23.6908 96.546 22.5308C96.5554 21.3616 97.5163 20.4522 98.7034 20.4707C99.8527 20.4986 100.748 21.4173 100.748 22.5586Z" fill="white"/>
<path d="M23.5335 23.7557C23.232 24.6651 22.7892 25.5467 22.1957 26.4004C21.6022 27.2541 20.8579 28.0058 19.963 28.6739C19.068 29.342 18.0317 29.871 16.854 30.27C15.6764 30.6597 14.3481 30.8546 12.8501 30.8546C11.2957 30.8546 9.826 30.5484 8.45054 29.9452C7.07508 29.342 5.8692 28.5069 4.82347 27.449C3.77775 26.3911 2.9487 25.1477 2.33634 23.7279C1.72398 22.3081 1.41309 20.7677 1.41309 19.0974C1.41309 17.4363 1.71456 15.8866 2.33634 14.4668C2.9487 13.047 3.78717 11.8036 4.84231 10.7457C5.90688 9.68783 7.13161 8.85266 8.54475 8.24949C9.94847 7.64632 11.4652 7.34009 13.0951 7.34009C14.6495 7.34009 16.1098 7.61848 17.4664 8.17525C18.823 8.73203 20.0101 9.5208 21.0181 10.5508C22.0261 11.5809 22.8269 12.8243 23.4016 14.272C23.9857 15.7289 24.2683 17.3342 24.2683 19.0974C24.2683 19.3572 24.2495 19.6077 24.2212 19.8583C24.1835 20.0995 24.1553 20.3408 24.1176 20.5635C24.0799 20.8234 24.0516 21.0739 24.014 21.2966H8.37517C8.63896 22.1503 9.17596 22.9298 9.98616 23.6444C10.7964 24.3589 11.8327 24.7208 13.0951 24.7208C13.7263 24.7208 14.2633 24.6466 14.7061 24.4981C15.1583 24.3496 15.5068 24.1826 15.7706 23.9877C16.1004 23.7928 16.3641 23.5516 16.562 23.2546L23.5335 23.7557ZM13.0951 13.4739C11.8327 13.4739 10.7964 13.8451 9.98616 14.5782C9.17596 15.3113 8.63896 16.165 8.37517 17.1486H17.815C17.5512 16.1743 17.0142 15.3113 16.204 14.5782C15.3844 13.8358 14.3481 13.4739 13.0951 13.4739Z" fill="black"/>
<path d="M27.999 30.3629V7.84124C28.1027 7.74844 28.1592 7.71133 28.2628 7.61853C30.4014 7.92476 32.5588 7.8134 34.7067 7.84124C34.7067 9.3631 34.7067 10.885 34.7067 12.4068C34.7067 14.272 34.7067 16.1279 34.7067 17.9931C34.7067 19.5428 34.7067 21.0925 34.7067 22.6422C34.7067 23.0969 34.7067 23.5423 34.7067 23.997H39.926V7.84124H46.6337V23.997H51.8529V7.84124H58.5606V30.3629H27.999Z" fill="black"/>
<path d="M74.9717 14.6988C76.1682 14.6988 77.261 14.903 78.2502 15.3113C79.2394 15.7196 80.1061 16.2764 80.8315 16.9723C81.557 17.6776 82.1316 18.5035 82.5462 19.4407C82.9607 20.3872 83.1679 21.4173 83.1679 22.5215C83.1679 23.6351 82.9607 24.6558 82.5462 25.6024C82.1316 26.5489 81.557 27.3748 80.8315 28.0707C80.1061 28.776 79.2394 29.3235 78.2502 29.7318C77.2516 30.1401 76.1587 30.3442 74.9717 30.3442H63.5347V7.84119H70.2424V14.6988H74.9717ZM73.7281 24.9806C74.5854 24.9806 75.2638 24.7579 75.7442 24.3218C76.2247 23.8763 76.4602 23.2825 76.4602 22.5308C76.4602 21.7792 76.2153 21.1853 75.7442 20.7398C75.2638 20.3037 74.5949 20.081 73.7281 20.081H70.2518V24.9806H73.7281Z" fill="black"/>
<path d="M137.145 15.375V5.42188H140.556C141.681 5.42188 142.538 5.64746 143.126 6.09863C143.714 6.5498 144.008 7.22201 144.008 8.11523C144.008 8.57096 143.885 8.98112 143.639 9.3457C143.393 9.71029 143.033 9.99284 142.559 10.1934C143.096 10.3392 143.511 10.6149 143.803 11.0205C144.099 11.4215 144.247 11.9046 144.247 12.4697C144.247 13.404 143.946 14.1217 143.345 14.623C142.748 15.1243 141.891 15.375 140.774 15.375H137.145ZM138.874 10.8838V13.9941H140.795C141.337 13.9941 141.761 13.8597 142.066 13.5908C142.372 13.3219 142.524 12.9482 142.524 12.4697C142.524 11.4352 141.996 10.9066 140.938 10.8838H138.874ZM138.874 9.6123H140.569C141.107 9.6123 141.526 9.49154 141.827 9.25C142.132 9.00391 142.285 8.65755 142.285 8.21094C142.285 7.71875 142.144 7.36328 141.861 7.14453C141.583 6.92578 141.148 6.81641 140.556 6.81641H138.874V9.6123ZM148.923 11.1094H147.747V15.375H146.024V5.42188H147.747V9.60547H148.697L151.623 5.42188H153.742L150.324 10.1865L154.043 15.375H151.965L148.923 11.1094ZM158.582 10.624L160.578 5.42188H162.499L159.033 13.6797L158.719 14.3018C158.263 15.113 157.525 15.5186 156.504 15.5186L155.793 15.4775L155.807 14.1104C155.916 14.1286 156.11 14.1377 156.388 14.1377C156.88 14.1377 157.226 13.9281 157.427 13.5088L157.782 12.668L154.378 5.42188H156.265L158.582 10.624ZM171.249 12.1348C171.149 13.1966 170.757 14.026 170.073 14.623C169.39 15.2155 168.48 15.5117 167.346 15.5117C166.553 15.5117 165.853 15.3249 165.247 14.9512C164.646 14.5729 164.181 14.0374 163.853 13.3447C163.524 12.652 163.354 11.8477 163.34 10.9316V10.002C163.34 9.06315 163.506 8.236 163.839 7.52051C164.172 6.80501 164.648 6.25358 165.268 5.86621C165.892 5.47884 166.612 5.28516 167.428 5.28516C168.526 5.28516 169.41 5.58366 170.08 6.18066C170.75 6.77767 171.14 7.62077 171.249 8.70996H169.526C169.444 7.99447 169.235 7.47949 168.897 7.16504C168.565 6.84603 168.075 6.68652 167.428 6.68652C166.676 6.68652 166.097 6.96224 165.691 7.51367C165.29 8.06055 165.085 8.86491 165.076 9.92676V10.8086C165.076 11.8841 165.268 12.7044 165.65 13.2695C166.038 13.8346 166.603 14.1172 167.346 14.1172C168.025 14.1172 168.535 13.9645 168.877 13.6592C169.219 13.3538 169.435 12.8457 169.526 12.1348H171.249ZM180.703 15.375H178.98V10.9521H174.53V15.375H172.801V5.42188H174.53V9.56445H178.98V5.42188H180.703V15.375ZM184.531 9.22949H186.568C187.298 9.22949 187.933 9.35482 188.476 9.60547C189.018 9.85612 189.43 10.2116 189.713 10.6719C189.995 11.1322 190.137 11.6654 190.137 12.2715C190.137 13.2012 189.82 13.9486 189.187 14.5137C188.558 15.0788 187.699 15.3659 186.609 15.375H182.802V5.42188H184.531V9.22949ZM192.844 15.375H191.121V5.42188H192.844V15.375ZM184.531 10.6172V13.9941H186.562C187.145 13.9941 187.598 13.8369 187.922 13.5225C188.25 13.2035 188.414 12.7819 188.414 12.2578C188.414 11.7565 188.255 11.36 187.936 11.0684C187.617 10.7767 187.174 10.6263 186.609 10.6172H184.531ZM200.78 10.9316H196.692V13.9941H201.471V15.375H194.963V5.42188H201.423V6.81641H196.692V9.56445H200.78V10.9316ZM138.874 27.6768V31.375H137.145V21.4219H140.952C142.064 21.4219 142.946 21.7113 143.598 22.29C144.254 22.8688 144.582 23.6344 144.582 24.5869C144.582 25.5622 144.261 26.321 143.618 26.8633C142.98 27.4056 142.085 27.6768 140.932 27.6768H138.874ZM138.874 26.2891H140.952C141.567 26.2891 142.037 26.1455 142.36 25.8584C142.684 25.5667 142.846 25.1475 142.846 24.6006C142.846 24.0628 142.682 23.6344 142.354 23.3154C142.025 22.9919 141.574 22.8255 141 22.8164H138.874V26.2891ZM151.917 26.9316H147.829V29.9941H152.607V31.375H146.1V21.4219H152.56V22.8164H147.829V25.5645H151.917V26.9316ZM154.002 21.4219H155.731V29.9941H160.113V21.4219H161.843V29.9805H163.046L162.909 33.7744H161.323V31.375H154.002V21.4219ZM170.292 26.9316H166.204V29.9941H170.982V31.375H164.475V21.4219H170.935V22.8164H166.204V25.5645H170.292V26.9316ZM180.266 31.375H178.543V22.8164H174.161V31.375H172.438V21.4219H180.266V31.375ZM189.549 22.8164H186.445V31.375H184.729V22.8164H181.653V21.4219H189.549V22.8164ZM192.639 25.2295H194.676C195.405 25.2295 196.041 25.3548 196.583 25.6055C197.125 25.8561 197.538 26.2116 197.82 26.6719C198.103 27.1322 198.244 27.6654 198.244 28.2715C198.244 29.2012 197.927 29.9486 197.294 30.5137C196.665 31.0788 195.806 31.3659 194.717 31.375H190.909V21.4219H192.639V25.2295ZM200.951 31.375H199.229V21.4219H200.951V31.375ZM192.639 26.6172V29.9941H194.669C195.252 29.9941 195.706 29.8369 196.029 29.5225C196.357 29.2035 196.521 28.7819 196.521 28.2578C196.521 27.7565 196.362 27.36 196.043 27.0684C195.724 26.7767 195.282 26.6263 194.717 26.6172H192.639Z" fill="#C7B299"/>
</svg>
