<svg width="140" height="136" viewBox="0 0 140 136" fill="none" xmlns="http://www.w3.org/2000/svg">
<ellipse cx="70" cy="68" rx="70" ry="68" fill="white"/>
<path d="M45.6235 73.7355C45.2471 74.8842 44.6941 75.9978 43.9529 77.0762C43.2118 78.1546 42.2824 79.104 41.1647 79.948C40.0471 80.7919 38.7529 81.4601 37.2824 81.9641C35.8118 82.4564 34.1529 82.7026 32.2824 82.7026C30.3412 82.7026 28.5059 82.3157 26.7882 81.5538C25.0706 80.7919 23.5647 79.737 22.2588 78.4007C20.9529 77.0645 19.9176 75.4938 19.1529 73.7004C18.3882 71.907 18 69.9612 18 67.8513C18 65.7531 18.3765 63.7956 19.1529 62.0022C19.9176 60.2088 20.9647 58.6381 22.2824 57.3018C23.6118 55.9656 25.1412 54.9106 26.9059 54.1487C28.6588 53.3868 30.5529 53 32.5882 53C34.5294 53 36.3529 53.3516 38.0471 54.0549C39.7412 54.7582 41.2235 55.7546 42.4824 57.0557C43.7412 58.3568 44.7412 59.9275 45.4588 61.756C46.1882 63.5963 46.5412 65.6242 46.5412 67.8513C46.5412 68.1795 46.5177 68.496 46.4824 68.8125C46.4353 69.1172 46.4 69.422 46.3529 69.7033C46.3059 70.0315 46.2706 70.348 46.2235 70.6293H26.6941C27.0235 71.7077 27.6941 72.6923 28.7059 73.5949C29.7176 74.4974 31.0118 74.9546 32.5882 74.9546C33.3765 74.9546 34.0471 74.8608 34.6 74.6733C35.1647 74.4857 35.6 74.2747 35.9294 74.0286C36.3412 73.7824 36.6706 73.4777 36.9176 73.1026L45.6235 73.7355ZM32.5882 60.748C31.0118 60.748 29.7176 61.2168 28.7059 62.1429C27.6941 63.0689 27.0235 64.1473 26.6941 65.3897H38.4824C38.1529 64.159 37.4824 63.0689 36.4706 62.1429C35.4471 61.2051 34.1529 60.748 32.5882 60.748Z" fill="#1A1A1A"/>
<path d="M51.2 82.0813V53.633C51.3294 53.5158 51.4 53.4689 51.5294 53.3517C54.2 53.7385 56.8941 53.5978 59.5765 53.633C59.5765 55.5553 59.5765 57.4777 59.5765 59.4C59.5765 61.756 59.5765 64.1004 59.5765 66.4564C59.5765 68.4139 59.5765 70.3714 59.5765 72.3289C59.5765 72.9033 59.5765 73.4659 59.5765 74.0403H66.0941V53.633H74.4706V74.0403H80.9883V53.633H89.3647V82.0813H51.2Z" fill="#1A1A1A"/>
<path d="M109.859 62.2952C111.353 62.2952 112.718 62.5531 113.953 63.0689C115.188 63.5846 116.271 64.2879 117.176 65.167C118.082 66.0579 118.8 67.1011 119.318 68.285C119.835 69.4806 120.094 70.7817 120.094 72.1766C120.094 73.5831 119.835 74.8725 119.318 76.0681C118.8 77.2637 118.082 78.307 117.176 79.1861C116.271 80.0769 115.188 80.7685 113.953 81.2842C112.706 81.8 111.341 82.0579 109.859 82.0579H95.5765V53.633H103.953V62.2952H109.859ZM108.306 75.2828C109.376 75.2828 110.224 75.0015 110.824 74.4505C111.424 73.8879 111.718 73.1377 111.718 72.1883C111.718 71.2388 111.412 70.4886 110.824 69.926C110.224 69.3751 109.388 69.0938 108.306 69.0938H103.965V75.2828H108.306Z" fill="#1A1A1A"/>
</svg>
