<svg width="510" height="585" viewBox="0 0 510 585" fill="none" xmlns="http://www.w3.org/2000/svg">
<path d="M334.376 54.2646C334.376 54.2646 259.457 28.9692 185.456 80.145C111.455 131.321 73.7766 226.781 41.412 303.358C9.04744 379.934 26.9892 454.966 83.0484 486.474C139.108 517.982 177.674 464.701 256.622 457.762C335.57 450.824 356.725 462.103 422.504 409.09C488.284 356.078 500.82 238.902 449.626 155.61C398.432 72.3177 334.376 54.2646 334.376 54.2646Z" fill="#92E3A9"/>
<path opacity="0.7" d="M334.376 54.2646C334.376 54.2646 259.457 28.9692 185.456 80.145C111.455 131.321 73.7766 226.781 41.412 303.358C9.04744 379.934 26.9892 454.966 83.0484 486.474C139.108 517.982 177.674 464.701 256.622 457.762C335.57 450.824 356.725 462.103 422.504 409.09C488.284 356.078 500.82 238.902 449.626 155.61C398.432 72.3177 334.376 54.2646 334.376 54.2646Z" fill="white"/>
<path d="M46.8691 471.159H469.118" stroke="#263238" stroke-linecap="round" stroke-linejoin="round"/>
<path d="M46.8691 482.262H469.118" stroke="#263238" stroke-linecap="round" stroke-linejoin="round"/>
<path d="M76.9792 285.024H52.7644C50.4378 285.024 48.5518 287.187 48.5518 289.856V317.632C48.5518 320.3 50.4378 322.464 52.7644 322.464H76.9792C79.3057 322.464 81.1918 320.3 81.1918 317.632V289.856C81.1918 287.187 79.3057 285.024 76.9792 285.024Z" stroke="#263238" stroke-linecap="round" stroke-linejoin="round"/>
<path d="M112.384 285.024H88.1691C85.8426 285.024 83.9565 287.187 83.9565 289.856V317.632C83.9565 320.3 85.8426 322.464 88.1691 322.464H112.384C114.71 322.464 116.597 320.3 116.597 317.632V289.856C116.597 287.187 114.71 285.024 112.384 285.024Z" stroke="#263238" stroke-linecap="round" stroke-linejoin="round"/>
<path d="M147.788 285.024H123.573C121.246 285.024 119.36 287.187 119.36 289.856V317.632C119.36 320.3 121.246 322.464 123.573 322.464H147.788C150.114 322.464 152 320.3 152 317.632V289.856C152 287.187 150.114 285.024 147.788 285.024Z" stroke="#263238" stroke-linecap="round" stroke-linejoin="round"/>
<path d="M183.182 285.024H158.967C156.641 285.024 154.755 287.187 154.755 289.856V317.632C154.755 320.3 156.641 322.464 158.967 322.464H183.182C185.509 322.464 187.395 320.3 187.395 317.632V289.856C187.395 287.187 185.509 285.024 183.182 285.024Z" stroke="#263238" stroke-linecap="round" stroke-linejoin="round"/>
<path d="M218.586 285.024H194.371C192.045 285.024 190.159 287.187 190.159 289.856V317.632C190.159 320.3 192.045 322.464 194.371 322.464H218.586C220.913 322.464 222.799 320.3 222.799 317.632V289.856C222.799 287.187 220.913 285.024 218.586 285.024Z" stroke="#263238" stroke-linecap="round" stroke-linejoin="round"/>
<path d="M253.99 285.024H229.776C227.449 285.024 225.563 287.187 225.563 289.856V317.632C225.563 320.3 227.449 322.464 229.776 322.464H253.99C256.317 322.464 258.203 320.3 258.203 317.632V289.856C258.203 287.187 256.317 285.024 253.99 285.024Z" stroke="#263238" stroke-linecap="round" stroke-linejoin="round"/>
<path d="M289.384 285.024H265.169C262.843 285.024 260.957 287.187 260.957 289.856V317.632C260.957 320.3 262.843 322.464 265.169 322.464H289.384C291.71 322.464 293.596 320.3 293.596 317.632V289.856C293.596 287.187 291.71 285.024 289.384 285.024Z" stroke="#263238" stroke-linecap="round" stroke-linejoin="round"/>
<path d="M324.788 285.024H300.573C298.247 285.024 296.361 287.187 296.361 289.856V317.632C296.361 320.3 298.247 322.464 300.573 322.464H324.788C327.115 322.464 329.001 320.3 329.001 317.632V289.856C329.001 287.187 327.115 285.024 324.788 285.024Z" stroke="#263238" stroke-linecap="round" stroke-linejoin="round"/>
<path d="M360.193 285.024H335.978C333.651 285.024 331.765 287.187 331.765 289.856V317.632C331.765 320.3 333.651 322.464 335.978 322.464H360.193C362.519 322.464 364.405 320.3 364.405 317.632V289.856C364.405 287.187 362.519 285.024 360.193 285.024Z" stroke="#263238" stroke-linecap="round" stroke-linejoin="round"/>
<path d="M395.587 285.024H371.372C369.045 285.024 367.159 287.187 367.159 289.856V317.632C367.159 320.3 369.045 322.464 371.372 322.464H395.587C397.913 322.464 399.799 320.3 399.799 317.632V289.856C399.799 287.187 397.913 285.024 395.587 285.024Z" stroke="#263238" stroke-linecap="round" stroke-linejoin="round"/>
<path d="M430.991 285.024H406.776C404.449 285.024 402.563 287.187 402.563 289.856V317.632C402.563 320.3 404.449 322.464 406.776 322.464H430.991C433.317 322.464 435.203 320.3 435.203 317.632V289.856C435.203 287.187 433.317 285.024 430.991 285.024Z" stroke="#263238" stroke-linecap="round" stroke-linejoin="round"/>
<path d="M466.395 285.024H442.18C439.854 285.024 437.968 287.187 437.968 289.856V317.632C437.968 320.3 439.854 322.464 442.18 322.464H466.395C468.722 322.464 470.608 320.3 470.608 317.632V289.856C470.608 287.187 468.722 285.024 466.395 285.024Z" stroke="#263238" stroke-linecap="round" stroke-linejoin="round"/>
<path d="M76.9792 325.038H52.7644C50.4378 325.038 48.5518 327.201 48.5518 329.87V357.646C48.5518 360.314 50.4378 362.478 52.7644 362.478H76.9792C79.3057 362.478 81.1918 360.314 81.1918 357.646V329.87C81.1918 327.201 79.3057 325.038 76.9792 325.038Z" stroke="#263238" stroke-linecap="round" stroke-linejoin="round"/>
<path d="M112.384 325.038H88.1691C85.8426 325.038 83.9565 327.201 83.9565 329.87V357.646C83.9565 360.314 85.8426 362.478 88.1691 362.478H112.384C114.71 362.478 116.597 360.314 116.597 357.646V329.87C116.597 327.201 114.71 325.038 112.384 325.038Z" stroke="#263238" stroke-linecap="round" stroke-linejoin="round"/>
<path d="M147.788 325.038H123.573C121.246 325.038 119.36 327.201 119.36 329.87V357.646C119.36 360.314 121.246 362.478 123.573 362.478H147.788C150.114 362.478 152 360.314 152 357.646V329.87C152 327.201 150.114 325.038 147.788 325.038Z" stroke="#263238" stroke-linecap="round" stroke-linejoin="round"/>
<path d="M183.182 325.038H158.967C156.641 325.038 154.755 327.201 154.755 329.87V357.646C154.755 360.314 156.641 362.478 158.967 362.478H183.182C185.509 362.478 187.395 360.314 187.395 357.646V329.87C187.395 327.201 185.509 325.038 183.182 325.038Z" stroke="#263238" stroke-linecap="round" stroke-linejoin="round"/>
<path d="M218.586 325.038H194.371C192.045 325.038 190.159 327.201 190.159 329.87V357.646C190.159 360.314 192.045 362.478 194.371 362.478H218.586C220.913 362.478 222.799 360.314 222.799 357.646V329.87C222.799 327.201 220.913 325.038 218.586 325.038Z" stroke="#263238" stroke-linecap="round" stroke-linejoin="round"/>
<path d="M253.99 325.038H229.776C227.449 325.038 225.563 327.201 225.563 329.87V357.646C225.563 360.314 227.449 362.478 229.776 362.478H253.99C256.317 362.478 258.203 360.314 258.203 357.646V329.87C258.203 327.201 256.317 325.038 253.99 325.038Z" stroke="#263238" stroke-linecap="round" stroke-linejoin="round"/>
<path d="M289.384 325.038H265.169C262.843 325.038 260.957 327.201 260.957 329.87V357.646C260.957 360.314 262.843 362.478 265.169 362.478H289.384C291.71 362.478 293.596 360.314 293.596 357.646V329.87C293.596 327.201 291.71 325.038 289.384 325.038Z" stroke="#263238" stroke-linecap="round" stroke-linejoin="round"/>
<path d="M324.788 325.038H300.573C298.247 325.038 296.361 327.201 296.361 329.87V357.646C296.361 360.314 298.247 362.478 300.573 362.478H324.788C327.115 362.478 329.001 360.314 329.001 357.646V329.87C329.001 327.201 327.115 325.038 324.788 325.038Z" stroke="#263238" stroke-linecap="round" stroke-linejoin="round"/>
<path d="M360.193 325.038H335.978C333.651 325.038 331.765 327.201 331.765 329.87V357.646C331.765 360.314 333.651 362.478 335.978 362.478H360.193C362.519 362.478 364.405 360.314 364.405 357.646V329.87C364.405 327.201 362.519 325.038 360.193 325.038Z" stroke="#263238" stroke-linecap="round" stroke-linejoin="round"/>
<path d="M395.587 325.038H371.372C369.045 325.038 367.159 327.201 367.159 329.87V357.646C367.159 360.314 369.045 362.478 371.372 362.478H395.587C397.913 362.478 399.799 360.314 399.799 357.646V329.87C399.799 327.201 397.913 325.038 395.587 325.038Z" stroke="#263238" stroke-linecap="round" stroke-linejoin="round"/>
<path d="M430.991 325.038H406.776C404.449 325.038 402.563 327.201 402.563 329.87V357.646C402.563 360.314 404.449 362.478 406.776 362.478H430.991C433.317 362.478 435.203 360.314 435.203 357.646V329.87C435.203 327.201 433.317 325.038 430.991 325.038Z" stroke="#263238" stroke-linecap="round" stroke-linejoin="round"/>
<path d="M466.395 325.038H442.18C439.854 325.038 437.968 327.201 437.968 329.87V357.646C437.968 360.314 439.854 362.478 442.18 362.478H466.395C468.722 362.478 470.608 360.314 470.608 357.646V329.87C470.608 327.201 468.722 325.038 466.395 325.038Z" stroke="#263238" stroke-linecap="round" stroke-linejoin="round"/>
<path d="M76.9792 365.052H52.7644C50.4378 365.052 48.5518 367.215 48.5518 369.884V397.66C48.5518 400.328 50.4378 402.492 52.7644 402.492H76.9792C79.3057 402.492 81.1918 400.328 81.1918 397.66V369.884C81.1918 367.215 79.3057 365.052 76.9792 365.052Z" stroke="#263238" stroke-linecap="round" stroke-linejoin="round"/>
<path d="M112.384 365.052H88.1691C85.8426 365.052 83.9565 367.215 83.9565 369.884V397.66C83.9565 400.328 85.8426 402.492 88.1691 402.492H112.384C114.71 402.492 116.597 400.328 116.597 397.66V369.884C116.597 367.215 114.71 365.052 112.384 365.052Z" stroke="#263238" stroke-linecap="round" stroke-linejoin="round"/>
<path d="M147.788 365.052H123.573C121.246 365.052 119.36 367.215 119.36 369.884V397.66C119.36 400.328 121.246 402.492 123.573 402.492H147.788C150.114 402.492 152 400.328 152 397.66V369.884C152 367.215 150.114 365.052 147.788 365.052Z" stroke="#263238" stroke-linecap="round" stroke-linejoin="round"/>
<path d="M183.182 365.052H158.967C156.641 365.052 154.755 367.215 154.755 369.884V397.66C154.755 400.328 156.641 402.492 158.967 402.492H183.182C185.509 402.492 187.395 400.328 187.395 397.66V369.884C187.395 367.215 185.509 365.052 183.182 365.052Z" stroke="#263238" stroke-linecap="round" stroke-linejoin="round"/>
<path d="M218.586 365.052H194.371C192.045 365.052 190.159 367.215 190.159 369.884V397.66C190.159 400.328 192.045 402.492 194.371 402.492H218.586C220.913 402.492 222.799 400.328 222.799 397.66V369.884C222.799 367.215 220.913 365.052 218.586 365.052Z" stroke="#263238" stroke-linecap="round" stroke-linejoin="round"/>
<path d="M253.99 365.052H229.776C227.449 365.052 225.563 367.215 225.563 369.884V397.66C225.563 400.328 227.449 402.492 229.776 402.492H253.99C256.317 402.492 258.203 400.328 258.203 397.66V369.884C258.203 367.215 256.317 365.052 253.99 365.052Z" stroke="#263238" stroke-linecap="round" stroke-linejoin="round"/>
<path d="M289.384 365.052H265.169C262.843 365.052 260.957 367.215 260.957 369.884V397.66C260.957 400.328 262.843 402.492 265.169 402.492H289.384C291.71 402.492 293.596 400.328 293.596 397.66V369.884C293.596 367.215 291.71 365.052 289.384 365.052Z" stroke="#263238" stroke-linecap="round" stroke-linejoin="round"/>
<path d="M324.788 365.052H300.573C298.247 365.052 296.361 367.215 296.361 369.884V397.66C296.361 400.328 298.247 402.492 300.573 402.492H324.788C327.115 402.492 329.001 400.328 329.001 397.66V369.884C329.001 367.215 327.115 365.052 324.788 365.052Z" stroke="#263238" stroke-linecap="round" stroke-linejoin="round"/>
<path d="M360.193 365.052H335.978C333.651 365.052 331.765 367.215 331.765 369.884V397.66C331.765 400.328 333.651 402.492 335.978 402.492H360.193C362.519 402.492 364.405 400.328 364.405 397.66V369.884C364.405 367.215 362.519 365.052 360.193 365.052Z" stroke="#263238" stroke-linecap="round" stroke-linejoin="round"/>
<path d="M395.587 365.052H371.372C369.045 365.052 367.159 367.215 367.159 369.884V397.66C367.159 400.328 369.045 402.492 371.372 402.492H395.587C397.913 402.492 399.799 400.328 399.799 397.66V369.884C399.799 367.215 397.913 365.052 395.587 365.052Z" stroke="#263238" stroke-linecap="round" stroke-linejoin="round"/>
<path d="M430.991 365.052H406.776C404.449 365.052 402.563 367.215 402.563 369.884V397.66C402.563 400.328 404.449 402.492 406.776 402.492H430.991C433.317 402.492 435.203 400.328 435.203 397.66V369.884C435.203 367.215 433.317 365.052 430.991 365.052Z" stroke="#263238" stroke-linecap="round" stroke-linejoin="round"/>
<path d="M466.395 365.052H442.18C439.854 365.052 437.968 367.215 437.968 369.884V397.66C437.968 400.328 439.854 402.492 442.18 402.492H466.395C468.722 402.492 470.608 400.328 470.608 397.66V369.884C470.608 367.215 468.722 365.052 466.395 365.052Z" stroke="#263238" stroke-linecap="round" stroke-linejoin="round"/>
<path d="M76.9792 405.066H52.7644C50.4378 405.066 48.5518 407.229 48.5518 409.898V437.674C48.5518 440.342 50.4378 442.506 52.7644 442.506H76.9792C79.3057 442.506 81.1918 440.342 81.1918 437.674V409.898C81.1918 407.229 79.3057 405.066 76.9792 405.066Z" stroke="#263238" stroke-linecap="round" stroke-linejoin="round"/>
<path d="M112.384 405.066H88.1691C85.8426 405.066 83.9565 407.229 83.9565 409.898V437.674C83.9565 440.342 85.8426 442.506 88.1691 442.506H112.384C114.71 442.506 116.597 440.342 116.597 437.674V409.898C116.597 407.229 114.71 405.066 112.384 405.066Z" stroke="#263238" stroke-linecap="round" stroke-linejoin="round"/>
<path d="M147.788 405.066H123.573C121.246 405.066 119.36 407.229 119.36 409.898V437.674C119.36 440.342 121.246 442.506 123.573 442.506H147.788C150.114 442.506 152 440.342 152 437.674V409.898C152 407.229 150.114 405.066 147.788 405.066Z" stroke="#263238" stroke-linecap="round" stroke-linejoin="round"/>
<path d="M183.182 405.066H158.967C156.641 405.066 154.755 407.229 154.755 409.898V437.674C154.755 440.342 156.641 442.506 158.967 442.506H183.182C185.509 442.506 187.395 440.342 187.395 437.674V409.898C187.395 407.229 185.509 405.066 183.182 405.066Z" stroke="#263238" stroke-linecap="round" stroke-linejoin="round"/>
<path d="M218.586 405.066H194.371C192.045 405.066 190.159 407.229 190.159 409.898V437.674C190.159 440.342 192.045 442.506 194.371 442.506H218.586C220.913 442.506 222.799 440.342 222.799 437.674V409.898C222.799 407.229 220.913 405.066 218.586 405.066Z" stroke="#263238" stroke-linecap="round" stroke-linejoin="round"/>
<path d="M253.99 405.066H229.776C227.449 405.066 225.563 407.229 225.563 409.898V437.674C225.563 440.342 227.449 442.506 229.776 442.506H253.99C256.317 442.506 258.203 440.342 258.203 437.674V409.898C258.203 407.229 256.317 405.066 253.99 405.066Z" stroke="#263238" stroke-linecap="round" stroke-linejoin="round"/>
<path d="M289.384 405.066H265.169C262.843 405.066 260.957 407.229 260.957 409.898V437.674C260.957 440.342 262.843 442.506 265.169 442.506H289.384C291.71 442.506 293.596 440.342 293.596 437.674V409.898C293.596 407.229 291.71 405.066 289.384 405.066Z" stroke="#263238" stroke-linecap="round" stroke-linejoin="round"/>
<path d="M324.788 405.066H300.573C298.247 405.066 296.361 407.229 296.361 409.898V437.674C296.361 440.342 298.247 442.506 300.573 442.506H324.788C327.115 442.506 329.001 440.342 329.001 437.674V409.898C329.001 407.229 327.115 405.066 324.788 405.066Z" stroke="#263238" stroke-linecap="round" stroke-linejoin="round"/>
<path d="M360.193 405.066H335.978C333.651 405.066 331.765 407.229 331.765 409.898V437.674C331.765 440.342 333.651 442.506 335.978 442.506H360.193C362.519 442.506 364.405 440.342 364.405 437.674V409.898C364.405 407.229 362.519 405.066 360.193 405.066Z" stroke="#263238" stroke-linecap="round" stroke-linejoin="round"/>
<path d="M395.587 405.066H371.372C369.045 405.066 367.159 407.229 367.159 409.898V437.674C367.159 440.342 369.045 442.506 371.372 442.506H395.587C397.913 442.506 399.799 440.342 399.799 437.674V409.898C399.799 407.229 397.913 405.066 395.587 405.066Z" stroke="#263238" stroke-linecap="round" stroke-linejoin="round"/>
<path d="M430.991 405.066H406.776C404.449 405.066 402.563 407.229 402.563 409.898V437.674C402.563 440.342 404.449 442.506 406.776 442.506H430.991C433.317 442.506 435.203 440.342 435.203 437.674V409.898C435.203 407.229 433.317 405.066 430.991 405.066Z" stroke="#263238" stroke-linecap="round" stroke-linejoin="round"/>
<path d="M466.395 405.066H442.18C439.854 405.066 437.968 407.229 437.968 409.898V437.674C437.968 440.342 439.854 442.506 442.18 442.506H466.395C468.722 442.506 470.608 440.342 470.608 437.674V409.898C470.608 407.229 468.722 405.066 466.395 405.066Z" stroke="#263238" stroke-linecap="round" stroke-linejoin="round"/>
<path d="M121.737 267.836V87.2937" stroke="#263238" stroke-linecap="round" stroke-linejoin="round"/>
<path d="M132.182 218.17H126.582V255.563H132.182V218.17Z" fill="#263238" stroke="#263238" stroke-linecap="round" stroke-linejoin="round"/>
<path d="M116.903 218.17H111.303V255.563H116.903V218.17Z" fill="#263238" stroke="#263238" stroke-linecap="round" stroke-linejoin="round"/>
<path d="M46.8691 267.836H469.118" stroke="#263238" stroke-width="2" stroke-linecap="round" stroke-linejoin="round"/>
<path d="M373.361 267.836V87.2937" stroke="#263238" stroke-linecap="round" stroke-linejoin="round"/>
<path d="M369.791 218.17H364.191V255.563H369.791V218.17Z" fill="#263238" stroke="#263238" stroke-linecap="round" stroke-linejoin="round"/>
<path d="M383.296 218.17H377.696V255.563H383.296V218.17Z" fill="#263238" stroke="#263238" stroke-linecap="round" stroke-linejoin="round"/>
<path d="M127.439 420.65H139.975C141.081 420.65 142.142 421.154 142.925 422.052C143.707 422.949 144.147 424.166 144.147 425.435V470.574H123.267V425.435C123.267 424.166 123.707 422.949 124.489 422.052C125.271 421.154 126.332 420.65 127.439 420.65Z" fill="white" stroke="#263238" stroke-linecap="round" stroke-linejoin="round"/>
<path d="M127.439 420.65H139.975C141.081 420.65 142.142 421.154 142.925 422.052C143.707 422.949 144.147 424.166 144.147 425.435V433.696H123.267V425.435C123.267 424.166 123.707 422.949 124.489 422.052C125.271 421.154 126.332 420.65 127.439 420.65Z" fill="white" stroke="#263238" stroke-linecap="round" stroke-linejoin="round"/>
<path d="M127.653 435.568V465.695" stroke="#263238" stroke-linecap="round" stroke-linejoin="round"/>
<path d="M134.273 435.568V465.695" stroke="#263238" stroke-linecap="round" stroke-linejoin="round"/>
<path d="M462.876 406.306H363.314C361.55 406.306 360.121 407.945 360.121 409.968V467.497C360.121 469.519 361.55 471.159 363.314 471.159H462.876C464.639 471.159 466.068 469.519 466.068 467.497V409.968C466.068 407.945 464.639 406.306 462.876 406.306Z" fill="white" stroke="#263238" stroke-linecap="round" stroke-linejoin="round"/>
<path d="M461.989 410.389H440.089V423.832H461.989V410.389Z" fill="#696969" stroke="#263238" stroke-linecap="round" stroke-linejoin="round"/>
<path d="M445.087 436.41C445.087 437.046 444.922 437.668 444.614 438.198C444.306 438.727 443.868 439.139 443.355 439.383C442.843 439.626 442.279 439.69 441.735 439.566C441.191 439.442 440.691 439.135 440.299 438.685C439.906 438.235 439.639 437.662 439.531 437.038C439.423 436.414 439.478 435.767 439.691 435.179C439.903 434.591 440.262 434.088 440.724 433.735C441.185 433.381 441.727 433.192 442.282 433.192C443.026 433.192 443.739 433.531 444.265 434.135C444.791 434.738 445.087 435.557 445.087 436.41Z" fill="white" stroke="#263238" stroke-linecap="round" stroke-linejoin="round"/>
<path d="M451.197 439.616C452.746 439.616 454.002 438.175 454.002 436.398C454.002 434.621 452.746 433.181 451.197 433.181C449.647 433.181 448.392 434.621 448.392 436.398C448.392 438.175 449.647 439.616 451.197 439.616Z" fill="white" stroke="#263238" stroke-linecap="round" stroke-linejoin="round"/>
<path d="M460.112 439.616C461.661 439.616 462.917 438.175 462.917 436.398C462.917 434.621 461.661 433.181 460.112 433.181C458.562 433.181 457.307 434.621 457.307 436.398C457.307 438.175 458.562 439.616 460.112 439.616Z" fill="white" stroke="#263238" stroke-linecap="round" stroke-linejoin="round"/>
<path d="M445.087 448.66C445.089 449.297 444.926 449.92 444.619 450.451C444.312 450.981 443.875 451.395 443.363 451.641C442.85 451.886 442.286 451.951 441.741 451.829C441.196 451.706 440.696 451.4 440.302 450.951C439.909 450.501 439.641 449.928 439.532 449.304C439.423 448.679 439.478 448.032 439.69 447.443C439.902 446.854 440.261 446.351 440.723 445.997C441.184 445.643 441.727 445.454 442.282 445.454C443.024 445.454 443.736 445.791 444.262 446.392C444.788 446.993 445.084 447.809 445.087 448.66Z" fill="white" stroke="#263238" stroke-linecap="round" stroke-linejoin="round"/>
<path d="M453.992 448.66C453.994 449.297 453.831 449.921 453.523 450.452C453.216 450.983 452.778 451.397 452.265 451.642C451.752 451.887 451.187 451.952 450.642 451.828C450.097 451.704 449.596 451.397 449.203 450.947C448.811 450.496 448.543 449.922 448.435 449.296C448.327 448.671 448.384 448.023 448.597 447.435C448.811 446.847 449.172 446.344 449.635 445.991C450.098 445.639 450.641 445.452 451.197 445.454C451.937 445.457 452.647 445.796 453.17 446.396C453.694 446.997 453.989 447.811 453.992 448.66Z" fill="white" stroke="#263238" stroke-linecap="round" stroke-linejoin="round"/>
<path d="M462.907 448.66C462.909 449.297 462.746 449.921 462.438 450.452C462.131 450.983 461.693 451.397 461.18 451.642C460.667 451.887 460.102 451.952 459.557 451.828C459.012 451.704 458.511 451.397 458.118 450.947C457.726 450.496 457.458 449.922 457.35 449.296C457.242 448.671 457.299 448.023 457.512 447.435C457.726 446.847 458.087 446.344 458.55 445.991C459.013 445.639 459.556 445.452 460.112 445.454C460.852 445.457 461.562 445.796 462.085 446.396C462.609 446.997 462.904 447.811 462.907 448.66Z" fill="white" stroke="#263238" stroke-linecap="round" stroke-linejoin="round"/>
<path d="M445.087 460.98C445.087 461.616 444.922 462.238 444.614 462.768C444.306 463.297 443.868 463.709 443.355 463.953C442.843 464.196 442.279 464.26 441.735 464.136C441.191 464.012 440.691 463.705 440.299 463.255C439.906 462.805 439.639 462.232 439.531 461.608C439.423 460.984 439.478 460.337 439.691 459.749C439.903 459.161 440.262 458.658 440.724 458.305C441.185 457.951 441.727 457.762 442.282 457.762C443.026 457.762 443.739 458.101 444.265 458.705C444.791 459.308 445.087 460.127 445.087 460.98Z" fill="white" stroke="#263238" stroke-linecap="round" stroke-linejoin="round"/>
<path d="M453.992 460.98C453.992 461.617 453.827 462.239 453.518 462.769C453.21 463.298 452.771 463.711 452.258 463.954C451.745 464.197 451.18 464.26 450.636 464.135C450.091 464.01 449.592 463.702 449.2 463.251C448.808 462.8 448.542 462.225 448.434 461.6C448.327 460.976 448.384 460.328 448.598 459.741C448.812 459.153 449.173 458.651 449.636 458.299C450.098 457.947 450.642 457.76 451.197 457.762C451.939 457.766 452.65 458.106 453.174 458.709C453.698 459.312 453.992 460.129 453.992 460.98Z" fill="white" stroke="#263238" stroke-linecap="round" stroke-linejoin="round"/>
<path d="M462.906 460.98C462.906 461.617 462.742 462.239 462.433 462.769C462.124 463.298 461.686 463.711 461.172 463.954C460.659 464.197 460.095 464.26 459.55 464.135C459.006 464.01 458.506 463.702 458.114 463.251C457.722 462.8 457.456 462.225 457.349 461.6C457.242 460.976 457.299 460.328 457.513 459.741C457.727 459.153 458.088 458.651 458.55 458.299C459.013 457.947 459.556 457.76 460.112 457.762C460.854 457.766 461.565 458.106 462.088 458.709C462.612 459.312 462.906 460.129 462.906 460.98Z" fill="white" stroke="#263238" stroke-linecap="round" stroke-linejoin="round"/>
<path d="M431.46 438.142C431.46 453.796 430.44 466.479 429.165 466.479C427.89 466.479 426.88 453.796 426.88 438.142C426.88 422.487 427.9 409.804 429.165 409.804C430.43 409.804 431.46 422.499 431.46 438.142Z" fill="#696969" stroke="#263238" stroke-linecap="round" stroke-linejoin="round"/>
<path d="M417.864 412.273C416.385 412.191 414.885 412.144 413.376 412.144C387.06 412.144 365.731 424.184 365.731 439.054C365.731 453.925 387.06 465.964 413.376 465.964C414.885 465.964 416.436 465.964 417.864 465.847V412.273Z" fill="#696969" stroke="#263238" stroke-linecap="round" stroke-linejoin="round"/>
<path d="M96.7878 412.729H72.3384V421.492H96.7878V412.729Z" fill="#263238" stroke="#263238" stroke-linecap="round" stroke-linejoin="round"/>
<path d="M63.597 419.153H106.029L115.117 459.143H54.5088L63.597 419.153Z" fill="white" stroke="#263238" stroke-linecap="round" stroke-linejoin="round"/>
<path d="M115.117 458.839H54.5088V471.147H115.117V458.839Z" fill="#263238" stroke="#263238" stroke-linecap="round" stroke-linejoin="round"/>
<path d="M106.233 420.03L106.029 419.117H63.5971L63.3931 420.03C66.4531 435.825 74.8885 447.162 84.8131 447.162C94.7376 447.162 103.163 435.86 106.233 420.03Z" fill="#696969" stroke="#263238" stroke-linecap="round" stroke-linejoin="round"/>
<path d="M74.3786 448.367H70.8086V455.961H74.3786V448.367Z" fill="white" stroke="#263238" stroke-linecap="round" stroke-linejoin="round"/>
<path d="M82.528 448.367H78.958V455.961H82.528V448.367Z" fill="white" stroke="#263238" stroke-linecap="round" stroke-linejoin="round"/>
<path d="M90.6779 448.367H87.1079V455.961H90.6779V448.367Z" fill="white" stroke="#263238" stroke-linecap="round" stroke-linejoin="round"/>
<path d="M98.8278 448.367H95.2578V455.961H98.8278V448.367Z" fill="white" stroke="#263238" stroke-linecap="round" stroke-linejoin="round"/>
<path d="M222.36 112.437C222.36 112.437 200.501 120.92 195.268 136.106C190.036 151.293 203.275 161.179 206.968 163.648C210.66 166.117 213.435 178.858 210.354 195.074C207.274 211.29 198.043 217.304 191.576 216.625C185.109 215.947 183.875 215.21 183.875 215.21C183.875 215.21 184.803 234.281 201.123 242.752C217.443 251.222 224.553 248.04 224.553 248.04C224.553 248.04 252.562 257.926 266.73 255.06C280.897 252.193 287.64 247.35 287.64 247.35C287.64 247.35 295.341 251.234 306.428 244.518C317.515 237.803 321.514 227.565 321.514 227.565C321.514 227.565 305.5 227.214 309.192 208.143C312.885 189.072 313.813 152.346 295.932 130.092C278.052 107.839 243.943 96.1974 222.36 112.437Z" fill="#263238"/>
<path d="M244.504 121.306C244.504 121.306 253.684 157.716 273.064 169.849C292.444 181.982 305.704 196.759 305.704 209.945C305.704 223.131 306.163 243.196 327.318 234.749" stroke="#6E6E6E" stroke-linecap="round" stroke-linejoin="round"/>
<path d="M250.481 113.385C250.481 113.385 276.246 122.359 289.119 143.992C301.991 165.625 297.84 176.179 302.94 188.37C308.04 200.561 315.363 200.515 315.363 200.515" stroke="#6E6E6E" stroke-linecap="round" stroke-linejoin="round"/>
<path d="M247.727 117.082C247.727 117.082 269.8 129.741 278.082 148.742" stroke="#6E6E6E" stroke-linecap="round" stroke-linejoin="round"/>
<path d="M236.639 129.741C236.639 129.741 234.803 112.858 249.981 110.752" stroke="#6E6E6E" stroke-linecap="round" stroke-linejoin="round"/>
<path d="M206.325 158.769C206.325 158.769 191.607 150.848 199.879 138.189C208.151 125.529 233.457 126.582 233.457 126.582" stroke="#6E6E6E" stroke-linecap="round" stroke-linejoin="round"/>
<path d="M230.703 137.662C230.703 137.662 205.866 146.636 205.407 148.742C204.948 150.848 208.161 150.848 208.161 150.848" stroke="#6E6E6E" stroke-linecap="round" stroke-linejoin="round"/>
<path d="M239.904 116.029C239.904 116.029 236.68 111.279 222.88 114.449" stroke="#6E6E6E" stroke-linecap="round" stroke-linejoin="round"/>
<path d="M185.64 233.169C185.64 233.169 209.559 239.019 219.218 205.733" stroke="#6E6E6E" stroke-linecap="round" stroke-linejoin="round"/>
<path d="M203.102 246.87C203.102 246.87 221.043 246.87 225.644 224.71" stroke="#6E6E6E" stroke-linecap="round" stroke-linejoin="round"/>
<path d="M283.141 211.009C283.141 211.009 279.918 250.052 301.501 254.299" stroke="#6E6E6E" stroke-linecap="round" stroke-linejoin="round"/>
<path d="M222.36 112.437C222.36 112.437 200.501 120.92 195.268 136.106C190.036 151.293 203.275 161.179 206.968 163.648C210.66 166.117 213.435 178.858 210.354 195.074C207.274 211.29 198.043 217.304 191.576 216.625C185.109 215.947 183.875 215.21 183.875 215.21C183.875 215.21 184.803 234.281 201.123 242.752C217.443 251.222 224.553 248.04 224.553 248.04C224.553 248.04 252.562 257.926 266.73 255.06C280.897 252.193 287.64 247.35 287.64 247.35C287.64 247.35 295.341 251.234 306.428 244.518C317.515 237.803 321.514 227.565 321.514 227.565C321.514 227.565 305.5 227.214 309.192 208.143C312.885 189.072 313.813 152.346 295.932 130.092C278.052 107.839 243.943 96.1974 222.36 112.437Z" stroke="#263238" stroke-linecap="round" stroke-linejoin="round"/>
<path d="M206.091 270.644C206.091 270.644 190.444 269.147 182.631 279.244C174.818 289.341 137.312 357.774 128.836 371.674C120.36 385.574 120.36 410.19 135.976 413.56C151.592 416.93 166.576 396.735 173.145 387.375C176.453 382.49 180.048 377.869 183.906 373.546C183.906 373.546 180.968 359.33 189.771 336.515C198.573 313.7 204.775 295.753 207.702 286.03C210.63 276.307 206.091 270.644 206.091 270.644Z" fill="white"/>
<path opacity="0.1" d="M193.8 325.903L198.462 289.633C198.462 289.633 163.527 366.011 153.643 381.888C147.686 391.447 137.925 404.013 134.824 413.162C135.201 413.279 135.589 413.396 135.987 413.478C151.644 416.848 166.587 396.653 173.155 387.293C176.463 382.408 180.059 377.787 183.916 373.464C183.916 373.464 180.979 359.248 189.781 336.433C191.196 332.799 192.535 329.289 193.8 325.903Z" fill="black"/>
<path d="M206.091 270.644C206.091 270.644 190.444 269.147 182.631 279.244C174.818 289.341 137.312 357.774 128.836 371.674C120.36 385.574 120.36 410.19 135.976 413.56C151.592 416.93 166.576 396.735 173.145 387.375C176.453 382.49 180.048 377.869 183.906 373.546C183.906 373.546 180.968 359.33 189.771 336.515C198.573 313.7 204.775 295.753 207.702 286.03C210.63 276.307 206.091 270.644 206.091 270.644Z" stroke="#263238" stroke-linecap="round" stroke-linejoin="round"/>
<path d="M228.266 230.256C228.266 230.256 230.224 241.851 227.613 253.071C225.002 264.291 225.981 264.291 219.453 267.275C215.164 269.145 210.658 270.28 206.081 270.644C206.081 270.644 194.025 306.914 184.896 324.125C175.767 341.336 173.155 360.395 176.736 370.118C179.055 376.215 182.148 381.885 185.916 386.942C185.916 386.942 191.128 408.26 188.19 422.042C185.253 435.825 178.092 455.703 175.155 485.62C172.217 515.537 173.849 549.561 173.849 549.561H344.985C344.985 549.561 344.658 511.793 341.068 480.753C337.477 449.713 333.244 447.162 327.42 428.454C321.596 409.746 320.892 409.009 320.892 395.928C320.892 382.847 324.156 347.677 323.177 324.125C322.198 300.573 317.312 282.239 308.836 275.5C300.36 268.761 280.143 266.14 272.646 260.173C265.149 254.206 269.709 216.04 269.709 216.04C269.709 216.04 256.999 225.4 246.565 228.758C240.636 230.797 234.387 231.309 228.266 230.256Z" fill="white"/>
<path opacity="0.1" d="M259.079 263.25C270.116 270.481 285.763 273.85 301.348 271.44C291.658 267.403 278.337 264.794 272.564 260.185C265.067 254.206 269.626 216.052 269.626 216.052C263.957 220.14 258.004 223.685 251.827 226.652L252.48 237.498C252.48 237.498 245.279 254.124 259.079 263.25Z" fill="black"/>
<path opacity="0.1" d="M304.602 336.539C304.602 336.539 301.307 364.513 307.233 369.814C313.159 375.114 316.464 372.832 316.464 355.446C316.464 338.06 305.918 332.76 304.602 336.539Z" fill="black"/>
<path d="M228.266 230.256C228.266 230.256 230.224 241.851 227.613 253.071C225.002 264.291 225.981 264.291 219.453 267.275C215.164 269.145 210.658 270.28 206.081 270.644C206.081 270.644 194.025 306.914 184.896 324.125C175.767 341.336 173.155 360.395 176.736 370.118C179.055 376.215 182.148 381.885 185.916 386.942C185.916 386.942 191.128 408.26 188.19 422.042C185.253 435.825 178.092 455.703 175.155 485.62C172.217 515.537 173.849 549.561 173.849 549.561H344.985C344.985 549.561 344.658 511.793 341.068 480.753C337.477 449.713 333.244 447.162 327.42 428.454C321.596 409.746 320.892 409.009 320.892 395.928C320.892 382.847 324.156 347.677 323.177 324.125C322.198 300.573 317.312 282.239 308.836 275.5C300.36 268.761 280.143 266.14 272.646 260.173C265.149 254.206 269.709 216.04 269.709 216.04C269.709 216.04 256.999 225.4 246.565 228.758C240.636 230.797 234.387 231.309 228.266 230.256V230.256Z" stroke="#263238" stroke-linecap="round" stroke-linejoin="round"/>
<path d="M228.765 245.419C234.86 248.516 241.762 248.797 248.033 246.203C252.347 244.46 262.762 235.919 268.484 231.063C268.861 222.803 269.667 216.04 269.667 216.04C269.667 216.04 256.958 225.4 246.523 228.758C240.607 230.79 234.373 231.302 228.265 230.256C228.985 235.266 229.153 240.361 228.765 245.419Z" fill="#263238" stroke="#263238" stroke-linecap="round" stroke-linejoin="round"/>
<path d="M341.068 480.87C339.619 468.351 338.069 460.465 336.345 454.276C268.005 482.204 205.214 469.486 178.653 461.612C177.095 469.574 175.917 477.628 175.124 485.737C172.186 515.654 173.818 549.678 173.818 549.678H344.984C344.984 549.678 344.658 511.852 341.068 480.87Z" fill="#263238" stroke="#263238" stroke-linecap="round" stroke-linejoin="round"/>
<path d="M260.62 545.735C260.62 545.735 275.339 507.593 301.42 492.336" stroke="#6E6E6E" stroke-linecap="round" stroke-linejoin="round"/>
<path d="M255.397 540.283C258.056 528.449 263.285 517.581 270.595 508.693" stroke="#6E6E6E" stroke-linecap="round" stroke-linejoin="round"/>
<path d="M193.647 490.71C193.647 490.71 202.195 510.857 218.341 522.3" stroke="#6E6E6E" stroke-linecap="round" stroke-linejoin="round"/>
<path d="M320.851 395.928C320.851 389.622 321.605 378.214 322.279 365.508C316.036 365.777 307.04 364.9 300.318 358.944C288.904 348.847 283.039 329.402 284.661 308.459C285.783 294.126 290.261 277.512 292.974 268.456C290.455 267.637 287.415 266.76 284.977 265.953C283.559 271.943 281.601 281.666 278.143 293.132C272.278 312.577 261.823 338.001 240.648 338.376C219.473 338.75 202.837 331.227 207.059 309.91C210.119 294.454 214.067 277.044 215.995 268.632C212.76 269.698 209.437 270.373 206.08 270.644C206.08 270.644 194.024 306.914 184.895 324.125C175.766 341.336 173.155 360.395 176.735 370.118C179.054 376.215 182.147 381.885 185.915 386.942C185.915 386.942 191.127 408.26 188.189 422.042C185.69 433.859 180.101 450.122 176.694 473.16C185.537 478.729 205.886 488.37 242.994 490.476C285.12 492.816 325.614 479.314 340.241 473.733C336.844 449.163 332.825 445.571 327.44 428.395C321.503 409.757 320.851 409.009 320.851 395.928Z" fill="#92E3A9"/>
<path opacity="0.1" d="M281.02 488.861C301.124 486.077 320.939 481.03 340.18 473.792C336.784 449.222 332.765 445.63 327.379 428.454C321.504 409.734 320.851 409.009 320.851 395.928C320.851 389.622 321.606 378.214 322.279 365.508C316.037 365.777 307.04 364.9 300.319 358.944C291.302 350.977 285.773 337.159 284.631 321.399C277.664 337.089 263.772 364.537 248.543 373.277C226.777 385.761 213.18 378.741 194.82 370.153C181.56 363.952 177.48 365.087 176.817 370.328C179.113 376.361 182.168 381.974 185.885 386.989C185.885 386.989 186.905 391.377 187.843 397.437C192.464 401.72 198.879 406.095 207.743 410.717C230.183 422.417 267.577 429.437 287.303 442.693C307.03 455.949 291.383 469.217 281.857 485.597C281.32 486.575 281.031 487.705 281.02 488.861Z" fill="black"/>
<path d="M320.851 395.928C320.851 389.622 321.605 378.214 322.279 365.508C316.036 365.777 307.04 364.9 300.318 358.944C288.904 348.847 283.039 329.402 284.661 308.459C285.783 294.126 290.261 277.512 292.974 268.456C290.455 267.637 287.415 266.76 284.977 265.953C283.559 271.943 281.601 281.666 278.143 293.132C272.278 312.577 261.823 338.001 240.648 338.376C219.473 338.75 202.837 331.227 207.059 309.91C210.119 294.454 214.067 277.044 215.995 268.632C212.76 269.698 209.437 270.373 206.08 270.644C206.08 270.644 194.024 306.914 184.895 324.125C175.766 341.336 173.155 360.395 176.735 370.118C179.054 376.215 182.147 381.885 185.915 386.942C185.915 386.942 191.127 408.26 188.189 422.042C185.69 433.859 180.101 450.122 176.694 473.16C185.537 478.729 205.886 488.37 242.994 490.476C285.12 492.816 325.614 479.314 340.241 473.733C336.844 449.163 332.825 445.571 327.44 428.395C321.503 409.757 320.851 409.009 320.851 395.928Z" stroke="#263238" stroke-linecap="round" stroke-linejoin="round"/>
<path d="M192.453 390.066C192.453 390.066 199.379 393.857 210.813 393.857" stroke="#263238" stroke-linecap="round" stroke-linejoin="round"/>
<path d="M143.596 257.552C143.596 257.552 143.014 252.147 142.576 243.582C142.137 235.018 141.556 228.267 145.136 227.366C148.716 226.465 150.042 230.513 150.042 235.252C150.042 239.99 152.011 250.345 154.122 257.33C156.233 264.315 158.447 268.152 155.142 269.954C151.837 271.756 144.585 264.315 143.596 257.552Z" fill="white" stroke="#263238" stroke-linecap="round" stroke-linejoin="round"/>
<path d="M213.18 246.063C213.18 246.063 206.856 250.38 206.04 256.429C205.224 262.478 208.202 266.795 216.454 265.672C224.706 264.549 224.308 258.652 224.308 258.652L213.18 246.063Z" fill="#92E3A9" stroke="#263238" stroke-linecap="round" stroke-linejoin="round"/>
<path d="M217.178 252.72C217.178 252.72 212.007 255.54 210.528 258.652C209.049 261.764 206.836 264.303 212.007 262.326C217.178 260.348 219.157 252.474 217.178 252.72Z" fill="white" stroke="#263238" stroke-linecap="round" stroke-linejoin="round"/>
<path d="M207.59 257.4C201.531 259.085 198.237 256.979 194.932 257.821C194.213 258.012 193.484 258.153 192.749 258.242C188.057 256.382 184.202 253.247 180.06 249.842C178.469 248.531 176.817 247.174 175.062 245.852C164.607 237.931 147.522 232.818 146.829 232.608C146.542 232.527 146.239 232.579 145.985 232.752C145.732 232.926 145.548 233.208 145.474 233.536C145.4 233.864 145.442 234.212 145.591 234.505C145.739 234.798 145.983 235.011 146.268 235.1C146.441 235.1 163.689 240.306 173.808 247.97C175.521 249.269 177.164 250.614 178.734 251.913C186.731 258.476 198.063 265.649 208.182 261.916C208.41 261.874 208.622 261.751 208.786 261.564C208.951 261.377 209.06 261.136 209.1 260.875C210.66 258.57 207.59 257.4 207.59 257.4Z" fill="white" stroke="#263238" stroke-linecap="round" stroke-linejoin="round"/>
<path d="M208.692 258.921C205.634 260.163 202.343 260.454 199.155 259.763" stroke="#263238" stroke-linecap="round" stroke-linejoin="round"/>
<path d="M139.913 257.926C139.913 257.926 135.67 262.794 136.649 265.028" stroke="#263238" stroke-linecap="round" stroke-linejoin="round"/>
<path d="M168.3 279.993L164.383 274.763C164.383 274.763 167.198 260.863 168.626 256.803C169.304 255.061 169.821 253.241 170.166 251.374C171.186 249.034 171.717 244.939 170.34 243.36C169.126 241.968 167.616 243.664 167.28 244.097H167.229C167.344 243.672 167.369 243.223 167.302 242.785C167.236 242.347 167.08 241.933 166.847 241.578C166.614 241.222 166.31 240.936 165.962 240.741C165.613 240.546 165.23 240.45 164.842 240.458C161.7 240.224 158.926 243.114 158.926 243.114C158.926 243.114 158.365 240.458 156.6 240.458C154.836 240.458 151.296 244.062 149.919 246.086C149.817 246.238 149.726 246.39 149.624 246.566C146.319 250.158 139.944 257.95 139.944 257.95C139.944 257.95 141.576 250.099 144.503 246.73C147.431 243.36 155.264 237.007 153.959 234.023C152.653 231.04 148.746 234.023 148.746 234.023C148.746 234.023 131.141 244.858 130.815 249.35C130.488 253.843 125.919 272.914 127.551 274.786C129.183 276.658 151.011 291.985 151.011 291.985C151.011 291.985 135.027 328.63 129.162 344.717C123.297 360.805 117.422 377.243 116.769 391.833C116.117 406.423 123.909 417.269 137.312 417.269C150.715 417.269 156.549 406.797 158.508 386.603C160.466 366.409 169.911 305.815 170.564 295.343C171.217 284.872 172.186 285.234 168.3 279.993Z" fill="white"/>
<path opacity="0.1" d="M158.498 386.58C160.456 366.386 169.901 305.791 170.554 295.32C171.207 284.848 172.186 285.223 168.279 279.981L164.363 274.751C164.363 274.751 167.178 260.852 168.606 256.792C169.284 255.049 169.8 253.229 170.146 251.363C170.924 249.496 171.241 247.42 171.064 245.361L170.789 245.794C170.789 245.794 159.569 273.768 160.242 279.068C160.762 283.269 136.69 276.483 127.479 274.669V274.751C129.111 276.611 150.939 291.95 150.939 291.95C150.939 291.95 162.159 294.945 160.181 307.043C158.202 319.141 145.309 395.179 135.935 413.513C135.305 414.735 134.581 415.89 133.773 416.965C134.922 417.147 136.081 417.245 137.241 417.257C150.674 417.245 156.539 406.774 158.498 386.58Z" fill="black"/>
<path d="M168.3 279.993L164.383 274.763C164.383 274.763 167.198 260.863 168.626 256.803C169.304 255.061 169.821 253.241 170.166 251.374C171.186 249.034 171.717 244.939 170.34 243.36C169.126 241.968 167.616 243.664 167.28 244.097H167.229C167.344 243.672 167.369 243.223 167.302 242.785C167.236 242.347 167.08 241.933 166.847 241.578C166.614 241.222 166.31 240.936 165.962 240.741C165.613 240.546 165.23 240.45 164.842 240.458C161.7 240.224 158.926 243.114 158.926 243.114C158.926 243.114 158.365 240.458 156.6 240.458C154.836 240.458 151.296 244.062 149.919 246.086C149.817 246.238 149.726 246.39 149.624 246.566C146.319 250.158 139.944 257.95 139.944 257.95C139.944 257.95 141.576 250.099 144.503 246.73C147.431 243.36 155.264 237.007 153.959 234.023C152.653 231.04 148.746 234.023 148.746 234.023C148.746 234.023 131.141 244.858 130.815 249.35C130.488 253.843 125.919 272.914 127.551 274.786C129.183 276.658 151.011 291.985 151.011 291.985C151.011 291.985 135.027 328.63 129.162 344.717C123.297 360.805 117.422 377.243 116.769 391.833C116.117 406.423 123.909 417.269 137.312 417.269C150.715 417.269 156.549 406.797 158.508 386.603C160.466 366.409 169.911 305.815 170.564 295.343C171.217 284.872 172.186 285.234 168.3 279.993Z" stroke="#263238" stroke-linecap="round" stroke-linejoin="round"/>
<path d="M158.896 243.091C158.896 243.091 151.46 255.306 149.889 258.687C148.855 261.315 148.253 264.139 148.114 267.017" stroke="#263238" stroke-linecap="round" stroke-linejoin="round"/>
<path d="M157.151 270.399C157.434 266.965 158.231 263.612 159.507 260.489C161.476 255.528 167.249 244.109 167.249 244.109" stroke="#263238" stroke-linecap="round" stroke-linejoin="round"/>
<path d="M303.521 328.571C303.521 328.571 317.516 395.355 320.311 408.19C323.105 421.025 332.816 441.57 347.096 438.036C361.376 434.503 362.712 414.157 362.396 394.898C362.079 375.64 352.247 332.666 345.249 312.764C338.252 292.863 328.93 278.167 316.078 273.991C303.226 269.814 295.922 271.101 295.922 271.101" fill="white"/>
<path opacity="0.1" d="M362.436 394.898C362.161 375.64 352.287 332.666 345.29 312.764C338.293 292.863 328.97 278.167 316.118 273.991C312.646 272.852 309.108 272 305.53 271.44C310.957 274.084 328.99 285.48 339.537 323.692C352.063 369.053 359.937 403.077 346.789 418.954C339.894 427.261 333.529 427.693 326.899 425.365C331.673 433.66 338.568 440.142 347.095 438.036C361.365 434.503 362.711 414.18 362.436 394.898Z" fill="black"/>
<path d="M303.521 328.571C303.521 328.571 317.516 395.355 320.311 408.19C323.105 421.025 332.816 441.57 347.096 438.036C361.376 434.503 362.712 414.157 362.396 394.898C362.079 375.64 352.247 332.666 345.249 312.764C338.252 292.863 328.93 278.167 316.078 273.991C303.226 269.814 295.922 271.101 295.922 271.101" stroke="#263238" stroke-linecap="round" stroke-linejoin="round"/>
<path d="M297.289 320.042L203.286 321.75L215.628 359.014H215.761C218.505 368.374 232.876 375.57 250.206 375.57C266.893 375.57 280.806 368.924 284.295 360.044H284.519L297.289 320.042Z" fill="white" stroke="#263238" stroke-linecap="round" stroke-linejoin="round"/>
<path d="M250.206 336.586C276.215 336.586 297.3 329.179 297.3 320.042C297.3 310.905 276.215 303.498 250.206 303.498C224.197 303.498 203.113 310.905 203.113 320.042C203.113 329.179 224.197 336.586 250.206 336.586Z" fill="white" stroke="#263238" stroke-linecap="round" stroke-linejoin="round"/>
<path d="M250.206 333.707C274.553 333.707 294.29 327.165 294.29 319.094C294.29 311.023 274.553 304.481 250.206 304.481C225.859 304.481 206.122 311.023 206.122 319.094C206.122 327.165 225.859 333.707 250.206 333.707Z" fill="white" stroke="#263238" stroke-linecap="round" stroke-linejoin="round"/>
<path d="M206.835 318.989C206.835 318.989 204.795 310.495 206.274 310.214C207.753 309.933 210.15 313.969 212.527 311.243C214.903 308.517 216.699 304.75 219.973 305.089C223.247 305.429 222.951 309.535 225.073 309.535C227.194 309.535 229.836 305.089 231.03 309.875C232.223 314.66 228.99 321.832 226.858 324.558C224.726 327.284 220.014 326.605 213.465 326.605C206.917 326.605 206.835 318.989 206.835 318.989Z" fill="#92E3A9" stroke="#263238" stroke-linecap="round" stroke-linejoin="round"/>
<path d="M213.425 326.605L211.364 316.754" stroke="#263238" stroke-linecap="round" stroke-linejoin="round"/>
<path d="M216.535 326.371L217.036 310.249" stroke="#263238" stroke-linecap="round" stroke-linejoin="round"/>
<path d="M242.178 310.53C242.178 310.53 239.465 306.002 241.689 302.89C243.912 299.777 244.891 302.328 249.084 302.89C253.276 303.451 252.786 298.935 257.713 300.632C262.639 302.328 264.18 306.54 265.608 306.54C267.036 306.54 270.289 304.27 273.247 307.71C276.205 311.15 275.461 313.092 276.94 313.092C278.419 313.092 280.642 310.822 281.132 314.788C281.621 318.755 280.112 321.294 277.684 321.294C275.257 321.294 270.779 316.485 266.097 317.047C261.415 317.608 259.681 319.878 256.234 319.024C252.786 318.17 252.531 316.204 251.052 315.631C249.573 315.058 244.932 315.912 242.892 314.461C240.852 313.01 243.137 310.495 243.137 310.495L242.178 310.53Z" fill="#92E3A9" stroke="#263238" stroke-linecap="round" stroke-linejoin="round"/>
<path d="M254.796 311.126C254.796 311.126 252.083 306.599 254.306 303.486C256.53 300.374 257.509 302.925 261.701 303.486C265.893 304.048 265.404 299.532 270.33 301.228C275.257 302.925 276.746 307.172 278.225 307.172C279.704 307.172 282.907 304.902 285.865 308.342C288.823 311.782 288.089 313.724 289.568 313.724C291.047 313.724 293.26 311.454 293.76 315.42C294.26 319.387 292.74 321.925 290.302 321.925C287.864 321.925 283.397 317.117 278.715 317.678C274.033 318.24 272.309 320.51 268.851 319.656C265.394 318.802 265.159 316.836 263.68 316.263C262.201 315.689 257.56 316.543 255.52 315.093C253.48 313.642 255.765 311.126 255.765 311.126H254.796Z" fill="#92E3A9" stroke="#263238" stroke-linecap="round" stroke-linejoin="round"/>
<path d="M279.908 309.114L277.685 321.282L281.907 322.089L285.824 311.665" fill="#92E3A9"/>
<path d="M279.908 309.114L277.685 321.282L281.907 322.089L285.824 311.665" stroke="#263238" stroke-linecap="round" stroke-linejoin="round"/>
<path d="M267.577 305.159L268.067 311.665" stroke="#263238" stroke-linecap="round" stroke-linejoin="round"/>
<path d="M253.276 319.293C253.276 319.293 250.563 314.777 252.786 311.665C255.01 308.552 255.989 311.091 260.181 311.665C264.373 312.238 263.874 307.698 268.81 309.395C273.747 311.091 275.216 315.338 276.695 315.338C278.174 315.338 281.387 313.08 284.345 316.508C287.303 319.936 286.558 321.879 288.037 321.879C289.516 321.879 291.74 319.621 292.23 323.575C292.719 327.53 291.21 330.08 288.782 330.08C286.354 330.08 281.877 325.272 277.195 325.833C272.513 326.395 270.779 328.665 267.331 327.822C263.884 326.98 263.629 324.991 262.15 324.429C260.671 323.868 256.03 324.71 253.99 323.259C251.95 321.809 254.245 319.293 254.245 319.293H253.276Z" fill="#92E3A9" stroke="#263238" stroke-linecap="round" stroke-linejoin="round"/>
<path d="M254.99 322.663C259.84 322.663 263.772 319.797 263.772 316.263C263.772 312.728 259.84 309.863 254.99 309.863C250.139 309.863 246.208 312.728 246.208 316.263C246.208 319.797 250.139 322.663 254.99 322.663Z" fill="#808080" stroke="#263238" stroke-linecap="round" stroke-linejoin="round"/>
<path d="M254.796 315.128C254.796 315.128 252.368 311.782 253.082 310.998C253.796 310.214 257.162 309.991 257.57 311.138C257.978 312.285 254.796 315.128 254.796 315.128Z" fill="white"/>
<path d="M253.745 315.584C253.745 315.584 248.645 315.011 248.176 314.133C247.707 313.256 249.492 311.15 250.991 311.583C252.491 312.016 253.745 315.584 253.745 315.584Z" fill="white"/>
<path d="M253.541 316.438C253.541 316.438 249.655 318.942 248.441 318.614C247.228 318.287 246.146 315.97 247.574 315.409C249.002 314.847 253.541 316.438 253.541 316.438Z" fill="white"/>
<path d="M254.306 317.07C254.306 317.07 254.438 320.849 253.286 321.317C252.133 321.785 249.022 320.896 249.349 319.738C249.675 318.579 254.306 317.07 254.306 317.07Z" fill="white"/>
<path d="M255.51 317.07C255.51 317.07 259.59 319.41 259.335 320.358C259.08 321.305 256.152 322.464 255.143 321.528C254.133 320.592 255.51 317.07 255.51 317.07Z" fill="white"/>
<path d="M256.275 316.426C256.275 316.426 261.375 315.678 262.181 316.426C262.987 317.175 262.344 319.55 260.732 319.527C259.121 319.504 256.275 316.426 256.275 316.426Z" fill="white"/>
<path d="M256.02 315.572C256.02 315.572 258.498 312.25 259.783 312.25C261.069 312.25 263.18 314.168 262.109 315.058C261.038 315.947 256.02 315.572 256.02 315.572Z" fill="white"/>
<path d="M280.632 328.325C285.483 328.325 289.415 325.46 289.415 321.925C289.415 318.391 285.483 315.526 280.632 315.526C275.782 315.526 271.85 318.391 271.85 321.925C271.85 325.46 275.782 328.325 280.632 328.325Z" fill="#808080" stroke="#263238" stroke-linecap="round" stroke-linejoin="round"/>
<path d="M280.438 320.779C280.438 320.779 278.011 317.444 278.725 316.66C279.439 315.877 282.805 315.654 283.213 316.789C283.621 317.924 280.438 320.779 280.438 320.779Z" fill="white"/>
<path d="M279.388 321.235C279.388 321.235 274.288 320.674 273.819 319.784C273.349 318.895 275.134 316.801 276.634 317.234C278.133 317.667 279.388 321.235 279.388 321.235Z" fill="white"/>
<path d="M279.184 322.089C279.184 322.089 275.288 324.593 274.084 324.277C272.88 323.961 271.789 321.621 273.217 321.06C274.645 320.498 279.184 322.089 279.184 322.089Z" fill="white"/>
<path d="M279.949 322.756C279.949 322.756 280.081 326.535 278.929 327.003C277.776 327.471 274.665 326.582 274.992 325.424C275.318 324.265 279.949 322.756 279.949 322.756Z" fill="white"/>
<path d="M281.152 322.756C281.152 322.756 285.232 325.096 284.977 326.032C284.722 326.968 281.795 328.138 280.785 327.202C279.775 326.266 281.152 322.756 281.152 322.756Z" fill="white"/>
<path d="M281.917 322.089C281.917 322.089 287.017 321.34 287.823 322.089C288.629 322.838 287.986 325.225 286.375 325.19C284.763 325.155 281.917 322.089 281.917 322.089Z" fill="white"/>
<path d="M281.703 321.235C281.703 321.235 284.182 317.912 285.467 317.912C286.752 317.912 288.863 319.831 287.792 320.709C286.721 321.586 281.703 321.235 281.703 321.235Z" fill="white"/>
<path d="M247.86 317.292C247.86 317.292 250.002 308.798 248.441 308.517C246.881 308.236 244.361 312.273 241.934 309.547C239.506 306.821 237.66 303.03 234.192 303.393C230.724 303.755 231.132 307.839 228.929 307.839C226.726 307.839 223.961 303.393 222.717 308.178C221.473 312.963 224.89 320.135 227.062 322.862C229.235 325.588 234.202 324.909 241.016 324.909C247.829 324.909 247.86 317.292 247.86 317.292Z" fill="#92E3A9" stroke="#263238" stroke-linecap="round" stroke-linejoin="round"/>
<path d="M241.016 324.909L243.168 315.058" stroke="#263238" stroke-linecap="round" stroke-linejoin="round"/>
<path d="M237.772 324.675L237.262 308.552" stroke="#263238" stroke-linecap="round" stroke-linejoin="round"/>
<path d="M226.644 329.168C231.494 329.168 235.426 326.302 235.426 322.768C235.426 319.233 231.494 316.368 226.644 316.368C221.793 316.368 217.861 319.233 217.861 322.768C217.861 326.302 221.793 329.168 226.644 329.168Z" fill="#808080" stroke="#263238" stroke-linecap="round" stroke-linejoin="round"/>
<path d="M226.44 321.633C226.44 321.633 224.002 318.287 224.716 317.503C225.43 316.719 228.796 316.497 229.204 317.643C229.612 318.79 226.44 321.633 226.44 321.633Z" fill="white"/>
<path d="M225.42 322.078C225.42 322.078 220.32 321.516 219.85 320.638C219.381 319.761 221.166 317.655 222.666 318.088C224.165 318.521 225.42 322.078 225.42 322.078Z" fill="white"/>
<path d="M225.185 322.92C225.185 322.92 221.299 325.424 220.085 325.096C218.871 324.769 217.79 322.452 219.218 321.89C220.646 321.329 225.185 322.92 225.185 322.92Z" fill="white"/>
<path d="M225.96 323.61C225.96 323.61 226.093 327.389 224.94 327.857C223.787 328.325 220.676 327.436 221.003 326.278C221.329 325.12 225.96 323.61 225.96 323.61Z" fill="white"/>
<path d="M227.154 323.599C227.154 323.599 231.234 325.939 230.979 326.886C230.724 327.834 227.796 328.992 226.797 328.056C225.797 327.12 227.154 323.599 227.154 323.599Z" fill="white"/>
<path d="M227.918 322.92C227.918 322.92 233.018 322.171 233.824 322.92C234.63 323.669 233.998 326.044 232.376 326.02C230.754 325.997 227.918 322.92 227.918 322.92Z" fill="white"/>
<path d="M227.705 322.078C227.705 322.078 230.183 318.755 231.479 318.755C232.774 318.755 234.875 320.674 233.794 321.563C232.713 322.452 227.705 322.078 227.705 322.078Z" fill="white"/>
<path d="M229.744 322.639C229.744 322.639 233.824 315.619 243.902 314.449C243.902 314.449 248.839 316.146 246.86 316.426C244.881 316.707 237.496 315.853 231.56 322.932C225.624 330.01 229.744 322.639 229.744 322.639Z" fill="white" stroke="#263238" stroke-linecap="round" stroke-linejoin="round"/>
<path d="M253.429 325.131C253.429 328.407 249.502 331.075 244.646 331.075C239.791 331.075 235.864 328.407 235.864 325.131C235.864 321.855 239.791 319.199 244.646 319.199C249.502 319.199 253.429 321.855 253.429 325.131Z" fill="#808080" stroke="#263238" stroke-linecap="round" stroke-linejoin="round"/>
<path d="M244.453 324.09C244.453 324.09 242.015 320.99 242.729 320.264C243.443 319.539 246.809 319.34 247.217 320.393C247.625 321.446 244.453 324.09 244.453 324.09Z" fill="white"/>
<path d="M243.392 324.5C243.392 324.5 238.292 323.973 237.833 323.154C237.374 322.335 239.139 320.393 240.649 320.814C242.158 321.235 243.392 324.5 243.392 324.5Z" fill="white"/>
<path d="M243.188 325.26C243.188 325.26 239.302 327.6 238.088 327.284C236.875 326.968 235.793 324.827 237.211 324.301C238.629 323.774 243.188 325.26 243.188 325.26Z" fill="white"/>
<path d="M243.963 325.915C243.963 325.915 244.096 329.425 242.943 329.846C241.79 330.268 238.69 329.46 239.016 328.384C239.343 327.307 243.963 325.915 243.963 325.915Z" fill="white"/>
<path d="M245.157 325.904C245.157 325.904 249.237 328.091 248.992 328.945C248.748 329.8 245.81 330.899 244.8 330.045C243.79 329.191 245.157 325.904 245.157 325.904Z" fill="white"/>
<path d="M245.922 325.26C245.922 325.26 251.022 324.57 251.838 325.26C252.654 325.95 252.001 328.162 250.379 328.138C248.757 328.115 245.922 325.26 245.922 325.26Z" fill="white"/>
<path d="M245.707 324.488C245.707 324.488 248.196 321.411 249.481 321.422C250.766 321.434 252.878 323.201 251.807 324.02C250.736 324.839 245.707 324.488 245.707 324.488Z" fill="white"/>
<path d="M272.411 325.412C272.411 328.7 268.484 331.356 263.629 331.356C258.774 331.356 254.847 328.7 254.847 325.412C254.847 322.124 258.784 319.48 263.629 319.48C268.474 319.48 272.411 322.136 272.411 325.412Z" fill="#808080" stroke="#263238" stroke-linecap="round" stroke-linejoin="round"/>
<path d="M263.435 324.359C263.435 324.359 260.997 321.259 261.721 320.545C262.446 319.831 265.801 319.609 266.209 320.662C266.617 321.715 263.435 324.359 263.435 324.359Z" fill="white"/>
<path d="M262.384 324.78C262.384 324.78 257.284 324.265 256.815 323.435C256.346 322.604 258.121 320.674 259.63 321.095C261.14 321.516 262.384 324.78 262.384 324.78Z" fill="white"/>
<path d="M262.14 325.576C262.14 325.576 258.243 327.916 257.04 327.6C255.836 327.284 254.745 325.143 256.173 324.617C257.601 324.09 262.14 325.576 262.14 325.576Z" fill="white"/>
<path d="M262.945 326.196C262.945 326.196 263.078 329.706 261.925 330.127C260.773 330.548 257.672 329.741 257.999 328.665C258.325 327.588 262.945 326.196 262.945 326.196Z" fill="white"/>
<path d="M264.18 326.196C264.18 326.196 268.26 328.372 268.015 329.238C267.77 330.104 264.832 331.18 263.823 330.326C262.813 329.472 264.18 326.196 264.18 326.196Z" fill="white"/>
<path d="M264.904 325.576C264.904 325.576 270.004 324.874 270.82 325.576C271.636 326.278 270.983 328.477 269.371 328.454C267.76 328.431 264.904 325.576 264.904 325.576Z" fill="white"/>
<path d="M264.7 324.78C264.7 324.78 267.178 321.691 268.464 321.703C269.749 321.715 271.86 323.482 270.789 324.301C269.718 325.12 264.7 324.78 264.7 324.78Z" fill="white"/>
<path d="M253.174 316.426C253.174 316.426 250.604 324.312 240.934 328.009C240.934 328.009 235.834 327.623 237.67 326.839C239.506 326.056 246.911 324.979 251.297 316.567C255.683 308.155 253.174 316.426 253.174 316.426Z" fill="white" stroke="#263238" stroke-linecap="round" stroke-linejoin="round"/>
<path d="M276.573 319.41C276.573 319.41 274.002 327.296 264.333 330.993C264.333 330.993 259.233 330.607 261.069 329.823C262.905 329.039 270.31 327.963 274.696 319.562C279.082 311.161 276.573 319.41 276.573 319.41Z" fill="white" stroke="#263238" stroke-linecap="round" stroke-linejoin="round"/>
<path d="M214.862 328.63C214.862 328.63 209.191 325.237 213.638 324.102C218.086 322.967 220.289 329.191 221.278 326.091C222.268 322.99 223.645 321.177 226.776 322.078C229.908 322.978 226.776 325.985 230.05 326.886C233.325 327.787 230.356 320.896 236.293 324.336C242.229 327.775 240.505 332.023 243.718 332.303C246.931 332.584 246.421 325.517 250.614 326.371C254.806 327.226 252.837 328.349 255.55 328.91C258.264 329.472 258.753 326.371 261.466 328.349C264.18 330.326 265.903 332.303 267.382 331.18C268.861 330.057 268.402 328.63 271.085 328.068C273.768 327.506 274.043 326.371 276.012 323.54C277.98 320.709 280.948 324.71 283.906 324.71C286.864 324.71 287.109 324.71 288.588 321.317C288.996 320.349 289.623 319.523 290.403 318.927C291.184 318.33 292.089 317.984 293.025 317.924C293.025 317.924 295.494 320.744 292.291 324.137C289.088 327.53 276.501 335.451 266.648 336.586C256.795 337.72 242.974 339.124 230.897 337.147C218.82 335.17 214.862 328.63 214.862 328.63Z" fill="#92E3A9" stroke="#263238" stroke-linecap="round" stroke-linejoin="round"/>
<path d="M259.335 320.381C259.335 320.381 263.415 313.361 273.492 312.191C273.492 312.191 278.429 313.888 276.45 314.168C274.471 314.449 267.087 313.607 261.15 320.674C255.214 327.74 259.335 320.381 259.335 320.381Z" fill="white" stroke="#263238" stroke-linecap="round" stroke-linejoin="round"/>
<path d="M236.936 133.24C236.936 133.24 213.629 145.174 210.416 154.627C207.203 164.081 208.988 173.558 206.111 184.252C203.235 194.945 197.146 200.292 201.807 215.514C206.468 230.736 222.615 237.311 229.072 240.61C235.196 243.747 242.142 244.041 248.452 241.429C254.572 238.961 272.84 222.92 272.84 222.92C272.84 222.92 274.635 225.798 282.52 222.511C290.404 219.223 294.76 202.761 292.567 195.355C290.374 187.949 280.724 193.296 280.724 193.296C280.724 193.296 234.07 161.624 236.936 133.24Z" fill="white"/>
<path opacity="0.1" d="M280.683 193.296C272.734 187.695 265.202 181.351 258.162 174.33C260.11 182.602 264.078 201.544 263.068 214.8C261.752 232.186 247.911 238.996 236.048 240.54C234.457 240.739 233.682 241.394 233.519 242.365C238.454 243.736 243.631 243.419 248.411 241.453C254.531 238.984 272.799 222.943 272.799 222.943C272.799 222.943 274.594 225.822 282.479 222.534C290.363 219.246 294.718 202.784 292.525 195.378C290.333 187.972 280.683 193.296 280.683 193.296Z" fill="black"/>
<path d="M236.936 133.24C236.936 133.24 213.629 145.174 210.416 154.627C207.203 164.081 208.988 173.558 206.111 184.252C203.235 194.945 197.146 200.292 201.807 215.514C206.468 230.736 222.615 237.311 229.072 240.61C235.196 243.747 242.142 244.041 248.452 241.429C254.572 238.961 272.84 222.92 272.84 222.92C272.84 222.92 274.635 225.798 282.52 222.511C290.404 219.223 294.76 202.761 292.567 195.355C290.374 187.949 280.724 193.296 280.724 193.296C280.724 193.296 234.07 161.624 236.936 133.24Z" stroke="#263238" stroke-linecap="round" stroke-linejoin="round"/>
<path d="M227.613 178.074C227.098 181.113 225.707 183.865 223.665 185.89C220.442 188.768 217.933 190.827 221.156 194.08C224.379 197.332 226.899 196.127 226.899 196.127" stroke="#263238" stroke-linecap="round" stroke-linejoin="round"/>
<path d="M223.309 207.289C223.309 207.289 229.051 211.805 237.293 205.23" stroke="#263238" stroke-linecap="round" stroke-linejoin="round"/>
<path d="M236.579 201.942C236.579 201.942 235.865 203.99 239.088 207.698" stroke="#263238" stroke-linecap="round" stroke-linejoin="round"/>
<path d="M212.547 178.484C214.047 177.329 215.826 176.748 217.63 176.823C219.435 176.899 221.173 177.628 222.594 178.905" stroke="#263238" stroke-linecap="round" stroke-linejoin="round"/>
<path d="M237.66 179.724C237.66 179.724 241.964 175.196 248.421 180.543" stroke="#263238" stroke-linecap="round" stroke-linejoin="round"/>
<path d="M212.904 166.971C212.904 166.971 217.933 159.565 224.379 162.852" stroke="#263238" stroke-width="3" stroke-linecap="round" stroke-linejoin="round"/>
<path d="M234.069 163.274C234.069 163.274 240.883 158.746 246.983 166.971" stroke="#263238" stroke-width="3" stroke-linecap="round" stroke-linejoin="round"/>
<path d="M353.338 413.969C350.623 408.708 346.931 404.198 342.523 400.76C338.116 397.322 333.102 395.041 327.838 394.079C309.652 390.569 292.577 389.903 286.416 386.369C280.255 382.836 277.185 375.137 273.819 369.989C269.856 364.435 265.129 359.661 259.825 355.855C255.632 352.966 253.388 355.224 254.225 358.43C255.061 361.635 258.152 363.566 260.345 367.415C261.788 370.084 262.823 373.016 263.405 376.085C263.405 376.085 258.091 377.044 247.166 368.386C236.242 359.728 228.143 353.609 227.021 356.499C226.35 358.095 226.153 359.899 226.46 361.635C226.46 361.635 221.136 357.786 220.34 361.963C219.545 366.14 226.216 374.833 226.216 374.833C226.216 374.833 228.184 378.05 231.254 382.543C235.33 388.954 241.186 393.584 247.86 395.671C257.101 398.876 264.935 401.766 269.974 404.34C275.012 406.914 305.796 432.912 325.676 439.979C345.556 447.045 354.787 437.405 358.418 429.378C360.613 424.31 361.488 418.623 360.937 412.998" fill="white"/>
<path opacity="0.1" d="M360.896 413.01L353.338 413.969C352.764 412.744 352.109 411.571 351.38 410.459C350.353 413.6 348.793 416.476 346.79 418.918C333.601 434.795 322.187 421.925 307.897 415.9C293.607 409.874 265.057 393.214 250.553 393.974C248.143 394.099 245.729 394.009 243.331 393.705C244.788 394.462 246.287 395.107 247.819 395.635C257.06 398.841 264.894 401.731 269.933 404.305C274.971 406.879 305.755 432.877 325.635 439.943C345.515 447.01 354.746 437.369 358.377 429.343C360.564 424.288 361.439 418.619 360.896 413.01Z" fill="black"/>
<path d="M353.338 413.969C350.623 408.708 346.931 404.198 342.523 400.76C338.116 397.322 333.102 395.041 327.838 394.079C309.652 390.569 292.577 389.903 286.416 386.369C280.255 382.836 277.185 375.137 273.819 369.989C269.856 364.435 265.129 359.661 259.825 355.855C255.632 352.966 253.388 355.224 254.225 358.43C255.061 361.635 258.152 363.566 260.345 367.415C261.788 370.084 262.823 373.016 263.405 376.085C263.405 376.085 258.091 377.044 247.166 368.386C236.242 359.728 228.143 353.609 227.021 356.499C226.35 358.095 226.153 359.899 226.46 361.635C226.46 361.635 221.136 357.786 220.34 361.963C219.545 366.14 226.216 374.833 226.216 374.833C226.216 374.833 228.184 378.05 231.254 382.543C235.33 388.954 241.186 393.584 247.86 395.671C257.101 398.876 264.935 401.766 269.974 404.34C275.012 406.914 305.796 432.912 325.676 439.979C345.556 447.045 354.787 437.405 358.418 429.378C360.613 424.31 361.488 418.623 360.937 412.998" stroke="#263238" stroke-linecap="round" stroke-linejoin="round"/>
<path d="M226.552 361.635C226.552 361.635 238.486 373.16 241.199 375.921C243.188 377.797 245.418 379.308 247.809 380.402" stroke="#263238" stroke-linecap="round" stroke-linejoin="round"/>
<path d="M222.839 367.637C222.839 367.637 234.274 382.847 241.801 386.615" stroke="#263238" stroke-linecap="round" stroke-linejoin="round"/>
</svg>
