<svg width="20" height="20" viewBox="0 0 22 20" fill="none" xmlns="http://www.w3.org/2000/svg">
<path fill-rule="evenodd" clip-rule="evenodd" d="M9.5354 0C14.7995 0 19.0669 4.02944 19.0669 9C19.0669 11.1248 18.2871 13.0776 16.983 14.6172L20.8748 18.2929C21.2884 18.6834 21.2884 19.3166 20.8748 19.7071C20.493 20.0676 19.8923 20.0953 19.4769 19.7903L19.3771 19.7071L15.4843 16.0323C13.8538 17.2637 11.7857 18 9.5354 18C4.2713 18 0.00390625 13.9706 0.00390625 9C0.00390625 4.02944 4.2713 0 9.5354 0ZM9.5354 2C5.4411 2 2.12202 5.13401 2.12202 9C2.12202 12.866 5.4411 16 9.5354 16C13.6297 16 16.9488 12.866 16.9488 9C16.9488 5.13401 13.6297 2 9.5354 2Z" fill="black"/>
</svg>
